<?xml version="1.0" encoding="utf-8"?>
<!-- Generator: Adobe Illustrator 26.1.0, SVG Export Plug-In . SVG Version: 6.00 Build 0)  -->
<svg version="1.1" id="Слой_1" xmlns="http://www.w3.org/2000/svg" xmlns:xlink="http://www.w3.org/1999/xlink" x="0px" y="0px"
	 viewBox="0 0 225 225" style="enable-background:new 0 0 225 225;" xml:space="preserve">
<style type="text/css">
	.st0{fill:#FFFFFF;}
	.st1{fill:none;stroke:#FFFFFF;stroke-width:0.25;stroke-linecap:round;stroke-linejoin:round;stroke-miterlimit:10;}
	.st2{fill:none;stroke:#FFFFFF;stroke-width:0.75;stroke-linecap:round;stroke-linejoin:round;stroke-miterlimit:10;}
</style>
<g id="Подложка_бел">
</g>
<g id="Фон">
	<path class="st0" d="M74,0c0-0.6,0.4-1,1-1s1,0.5,1,1s-0.4,1-1,1S74,0.5,74,0"/>
	<path class="st0" d="M-1,75c0-0.6,0.4-1,1-1s1,0.4,1,1s-0.4,1-1,1S-1,75.5-1,75"/>
	<path class="st0" d="M36.5,37.5c0-0.5,0.5-1,1-1s1,0.5,1,1s-0.5,1-1,1S36.5,38,36.5,37.5"/>
	<path class="st0" d="M74,75c0-0.6,0.4-1,1-1s1,0.4,1,1s-0.4,1-1,1S74,75.5,74,75"/>
	<path class="st0" d="M-1,150c0-0.6,0.4-1,1-1s1,0.4,1,1s-0.4,1-1,1S-1,150.5-1,150"/>
	<path class="st0" d="M36.5,112.5c0-0.6,0.5-1,1-1s1,0.4,1,1s-0.5,1-1,1S36.5,113,36.5,112.5"/>
	<path class="st0" d="M74,150c0-0.6,0.4-1,1-1s1,0.4,1,1s-0.4,1-1,1S74,150.5,74,150"/>
	<path class="st0" d="M36.5,187.5c0-0.6,0.5-1,1-1s1,0.4,1,1s-0.5,1-1,1S36.5,188,36.5,187.5"/>
	<path class="st0" d="M74,225c0-0.6,0.4-1,1-1s1,0.4,1,1s-0.4,1-1,1S74,225.5,74,225"/>
	<path class="st0" d="M149,0c0-0.6,0.4-1,1-1s1,0.5,1,1s-0.4,1-1,1S149,0.5,149,0"/>
	<path class="st0" d="M111.5,37.5c0-0.5,0.4-1,1-1s1,0.5,1,1s-0.4,1-1,1S111.5,38,111.5,37.5"/>
	<path class="st0" d="M149,75c0-0.6,0.4-1,1-1s1,0.4,1,1s-0.4,1-1,1S149,75.5,149,75"/>
	<path class="st0" d="M186.5,37.5c0-0.5,0.4-1,1-1s1,0.5,1,1s-0.4,1-1,1S186.5,38,186.5,37.5"/>
	<path class="st0" d="M224,75c0-0.6,0.4-1,1-1s1,0.4,1,1s-0.4,1-1,1S224,75.5,224,75"/>
	<path class="st0" d="M111.5,112.5c0-0.6,0.4-1,1-1s1,0.4,1,1s-0.4,1-1,1S111.5,113,111.5,112.5"/>
	<path class="st0" d="M149,150c0-0.6,0.4-1,1-1s1,0.4,1,1s-0.4,1-1,1S149,150.5,149,150"/>
	<path class="st0" d="M186.5,112.5c0-0.6,0.4-1,1-1s1,0.4,1,1s-0.4,1-1,1S186.5,113,186.5,112.5"/>
	<path class="st0" d="M224,150c0-0.6,0.4-1,1-1s1,0.4,1,1s-0.4,1-1,1S224,150.5,224,150"/>
	<path class="st0" d="M111.5,187.5c0-0.6,0.4-1,1-1s1,0.4,1,1s-0.4,1-1,1S111.5,188,111.5,187.5"/>
	<path class="st0" d="M149,225c0-0.6,0.4-1,1-1s1,0.4,1,1s-0.4,1-1,1S149,225.5,149,225"/>
	<path class="st0" d="M186.5,187.5c0-0.6,0.4-1,1-1s1,0.4,1,1s-0.4,1-1,1S186.5,188,186.5,187.5"/>
	<line class="st1" x1="0" y1="0" x2="0" y2="225"/>
	<line class="st1" x1="75" y1="0" x2="75" y2="225"/>
	<line class="st1" x1="150" y1="0" x2="150" y2="225"/>
	<line class="st1" x1="225" y1="0" x2="225" y2="225"/>
	<line class="st1" x1="225" y1="225" x2="0" y2="225"/>
	<line class="st1" x1="225" y1="150" x2="0" y2="150"/>
	<line class="st1" x1="225" y1="75" x2="0" y2="75"/>
	<line class="st1" x1="225" y1="0" x2="0" y2="0"/>
	<line class="st2" x1="5.7" y1="0" x2="-5.7" y2="0"/>
	<line class="st2" x1="0" y1="5.7" x2="0" y2="-5.7"/>
	<line class="st2" x1="5.7" y1="225" x2="-5.7" y2="225"/>
	<line class="st2" x1="0" y1="230.7" x2="0" y2="219.3"/>
	<line class="st2" x1="230.7" y1="0" x2="219.3" y2="0"/>
	<line class="st2" x1="225" y1="5.7" x2="225" y2="-5.7"/>
	<line class="st2" x1="230.7" y1="225" x2="219.3" y2="225"/>
	<line class="st2" x1="225" y1="230.7" x2="225" y2="219.3"/>
</g>
</svg>
