<?xml version="1.0" encoding="utf-8"?>
<svg version="1.1" id="Слой_1" xmlns="http://www.w3.org/2000/svg" xmlns:xlink="http://www.w3.org/1999/xlink" x="0px" y="0px"
	 viewBox="0 0 225 225" style="enable-background:new 0 0 225 225;" xml:space="preserve">
<style type="text/css">
	.st0{display:none;opacity:0.25;}
	.st1{display:inline;}
	.st2{fill:#DCB1A1;}
	.st3{fill:#DDDAEE;}
	.st4{display:none;}
	.st5{display:inline;opacity:0.2;}
	.st6{display:none;opacity:0.1;}
	.st7{fill:none;stroke:#3F2B2A;stroke-linecap:round;stroke-linejoin:round;stroke-miterlimit:10;}
	.st8{fill:#969696;}
	.st9{fill:none;stroke:#969696;stroke-width:0.25;stroke-linecap:round;stroke-linejoin:round;stroke-miterlimit:10;}
	.st10{fill:none;stroke:#969696;stroke-width:0.75;stroke-linecap:round;stroke-linejoin:round;stroke-miterlimit:10;}
	.st11{display:inline;opacity:0.1;}
	.st12{fill:#3F2B2A;}
</style>
<g id="_x35_-1" class="st0">
	<g class="st1">
		<g>
			<polygon class="st2" points="150,37.5 187.5,0 225,37.5 187.5,75 			"/>
		</g>
	</g>
	<g class="st1">
		<g>
			<polygon class="st2" points="0,187.5 37.5,150 75,187.5 37.5,225 			"/>
		</g>
	</g>
	<g class="st1">
		<g>
			<polygon class="st2" points="150,187.5 187.5,150 225,187.5 187.5,225 			"/>
		</g>
	</g>
	<g class="st1">
		<g>
			<polygon class="st2" points="75,112.5 112.5,75 150,112.5 112.5,150 			"/>
			<g>
				<g>
					<polygon class="st2" points="0,37.5 37.5,0 75,37.5 37.5,75 					"/>
				</g>
			</g>
		</g>
	</g>
</g>
<g id="_x34_-1" class="st0">
	<g class="st1">
		<g>
			<polygon class="st3" points="75,37.5 112.5,0 150,37.5 112.5,75 			"/>
		</g>
	</g>
	<g class="st1">
		<g>
			<polygon class="st3" points="75,187.5 112.5,150 150,187.5 112.5,225 			"/>
		</g>
	</g>
	<g class="st1">
		<g>
			<polygon class="st3" points="187.5,75 225,112.5 187.5,150 150,112.5 			"/>
		</g>
	</g>
	<g class="st1">
		<g>
			<polygon class="st3" points="37.5,75 75,112.5 37.5,150 0,112.5 			"/>
		</g>
	</g>
</g>
<g id="_x34_-2_00000046305973163434472980000008934734633339607196_" class="st4">
	<g id="_x35_-2" class="st5">
		<g>
			<g>
				<path class="st3" d="M37.5,0L37.5,0C54.9,6.3,68.6,20.1,75,37.5l0,0l0,0c-17.5,6.3-31.2,20-37.5,37.5l0,0l0,0
					C20.1,68.6,6.3,54.9,0,37.5l0,0l0,0C17.4,31.2,31.2,17.4,37.5,0L37.5,0z"/>
			</g>
		</g>
		<g>
			<g>
				<path class="st3" d="M112.5,75L112.5,75c17.4,6.3,31.2,20.1,37.5,37.5l0,0l0,0c-17.4,6.3-31.2,20.1-37.5,37.5l0,0l0,0
					c-17.4-6.3-31.1-20.1-37.5-37.5l0,0l0,0C92.4,106.2,106.2,92.4,112.5,75L112.5,75z"/>
			</g>
		</g>
		<g>
			<g>
				<path class="st3" d="M187.5,150L187.5,150c17.4,6.3,31.2,20.1,37.5,37.5l0,0l0,0c-17.4,6.3-31.2,20.1-37.5,37.5l0,0l0,0
					c-17.4-6.3-31.1-20.1-37.5-37.5l0,0l0,0C167.5,181.2,181.2,167.5,187.5,150L187.5,150z"/>
			</g>
		</g>
		<g>
			<g>
				<path class="st3" d="M187.5,0L187.5,0c17.4,6.3,31.2,20.1,37.5,37.5l0,0l0,0c-17.4,6.3-31.2,20.1-37.5,37.5l0,0l0,0
					c-17.4-6.3-31.1-20.1-37.5-37.5l0,0l0,0C167.5,31.2,181.2,17.4,187.5,0L187.5,0z"/>
			</g>
		</g>
		<g>
			<g>
				<path class="st3" d="M37.5,150L37.5,150c17.4,6.3,31.2,20.1,37.5,37.5l0,0l0,0c-17.4,6.3-31.2,20.1-37.5,37.5l0,0l0,0
					C20.1,218.7,6.3,204.9,0,187.5l0,0l0,0C17.4,181.2,31.2,167.5,37.5,150L37.5,150z"/>
			</g>
		</g>
	</g>
	<g id="_x35_-3" class="st5">
		<g>
			<g>
				<path class="st3" d="M225,37.5L225,37.5c-6.3,17.4-20.1,31.2-37.5,37.5l0,0l0,0c-6.3-17.4-20.1-31.2-37.5-37.5l0,0l0,0
					c6.3-17.4,20.1-31.1,37.5-37.5l0,0l0,0C193.8,17.4,207.6,31.2,225,37.5L225,37.5z"/>
			</g>
		</g>
		<g>
			<g>
				<path class="st3" d="M150,112.5L150,112.5c-6.3,17.4-20.1,31.2-37.5,37.5l0,0l0,0c-6.3-17.4-20.1-31.2-37.5-37.5l0,0l0,0
					c6.3-17.4,20.1-31.1,37.5-37.5l0,0l0,0C118.8,92.4,132.6,106.2,150,112.5L150,112.5z"/>
			</g>
		</g>
		<g>
			<g>
				<path class="st3" d="M75,187.5L75,187.5c-6.3,17.4-20.1,31.2-37.5,37.5l0,0l0,0c-6.3-17.4-20.1-31.2-37.5-37.5l0,0l0,0
					c6.3-17.4,20.1-31.1,37.5-37.5l0,0l0,0C43.8,167.5,57.5,181.2,75,187.5L75,187.5z"/>
			</g>
		</g>
		<g>
			<g>
				<path class="st3" d="M225,187.5L225,187.5c-6.3,17.4-20.1,31.2-37.5,37.5l0,0l0,0c-6.3-17.4-20.1-31.2-37.5-37.5l0,0l0,0
					c6.3-17.4,20.1-31.1,37.5-37.5l0,0l0,0C193.8,167.5,207.6,181.2,225,187.5L225,187.5z"/>
			</g>
		</g>
		<g>
			<g>
				<path class="st3" d="M75,37.5L75,37.5C68.6,54.9,54.9,68.6,37.5,75l0,0l0,0C31.2,57.5,17.4,43.8,0,37.5l0,0l0,0
					C6.3,20.1,20.1,6.3,37.5,0l0,0l0,0C43.8,17.4,57.5,31.2,75,37.5L75,37.5z"/>
			</g>
		</g>
	</g>
</g>
<g id="_x34_-2_00000183240723692642536850000005629707214636453530_" class="st4">
	<g id="_x34_-2" class="st5">
		<g>
			<path class="st2" d="M150,37.5L150,37.5c-6.3,17.4-20.1,31.2-37.5,37.5l0,0l0,0C106.2,57.5,92.4,43.8,75,37.5l0,0l0,0
				C81.3,20.1,95.1,6.3,112.5,0l0,0l0,0C118.8,17.4,132.6,31.2,150,37.5L150,37.5z"/>
		</g>
		<g>
			<path class="st2" d="M150,187.5L150,187.5c-6.3,17.4-20.1,31.2-37.5,37.5l0,0l0,0c-6.3-17.4-20.1-31.2-37.5-37.5l0,0l0,0
				c6.3-17.4,20.1-31.1,37.5-37.5l0,0l0,0C118.8,167.5,132.6,181.2,150,187.5L150,187.5z"/>
		</g>
		<g>
			<path class="st2" d="M75,112.5L75,112.5c-6.3,17.4-20.1,31.2-37.5,37.5l0,0l0,0c-6.3-17.4-20.1-31.2-37.5-37.5l0,0l0,0
				C6.3,95.1,20.1,81.3,37.5,75l0,0l0,0C43.8,92.4,57.5,106.2,75,112.5L75,112.5z"/>
		</g>
		<g>
			<path class="st2" d="M225,112.5L225,112.5c-6.3,17.4-20.1,31.2-37.5,37.5l0,0l0,0c-6.3-17.4-20.1-31.2-37.5-37.5l0,0l0,0
				c6.3-17.4,20.1-31.1,37.5-37.5l0,0l0,0C193.8,92.4,207.6,106.2,225,112.5L225,112.5z"/>
		</g>
	</g>
	<g id="_x34_-3" class="st5">
		<g>
			<path class="st2" d="M187.5,150L187.5,150c-17.4-6.3-31.2-20.1-37.5-37.5l0,0l0,0c17.4-6.3,31.2-20.1,37.5-37.5l0,0l0,0
				c17.4,6.3,31.1,20.1,37.5,37.5l0,0l0,0C207.6,118.8,193.8,132.6,187.5,150L187.5,150z"/>
		</g>
		<g>
			<path class="st2" d="M37.5,150L37.5,150C20.1,143.7,6.3,129.9,0,112.5l0,0l0,0c17.4-6.3,31.2-20.1,37.5-37.5l0,0l0,0
				c17.4,6.3,31.1,20.1,37.5,37.5l0,0l0,0C57.5,118.8,43.8,132.6,37.5,150L37.5,150z"/>
		</g>
		<g>
			<path class="st2" d="M112.5,75L112.5,75C95.1,68.6,81.3,54.9,75,37.5l0,0l0,0c17.4-6.3,31.2-20.1,37.5-37.5l0,0l0,0
				c17.4,6.3,31.1,20.1,37.5,37.5l0,0l0,0C132.6,43.8,118.8,57.5,112.5,75L112.5,75z"/>
		</g>
		<g>
			<path class="st2" d="M112.5,225L112.5,225c-17.4-6.3-31.2-20.1-37.5-37.5l0,0l0,0c17.4-6.3,31.2-20.1,37.5-37.5l0,0l0,0
				c17.4,6.3,31.1,20.1,37.5,37.5l0,0l0,0C132.6,193.8,118.8,207.6,112.5,225L112.5,225z"/>
		</g>
	</g>
</g>
<g id="_x34_-3_00000116914307535750672250000008378467859832680582_" class="st4">
	<g id="_x35_-2_00000177443808655804223570000005174395837153746059_" class="st5">
		<g>
			<g>
				<path class="st3" d="M11,11L11,11c16.8-7.8,36.2-7.8,53,0l0,0l0,0c-7.8,16.8-7.8,36.2,0,53l0,0l0,0c-16.8,7.8-36.2,7.8-53,0l0,0
					l0,0C18.8,47.2,18.8,27.8,11,11L11,11z"/>
			</g>
		</g>
		<g>
			<g>
				<path class="st3" d="M86,86L86,86c16.8-7.8,36.2-7.8,53,0l0,0l0,0c-7.8,16.8-7.8,36.2,0,53l0,0l0,0c-16.8,7.8-36.2,7.8-53,0l0,0
					l0,0C93.8,122.2,93.8,102.8,86,86L86,86z"/>
			</g>
		</g>
		<g>
			<g>
				<path class="st3" d="M161,161L161,161c16.8-7.8,36.2-7.8,53,0l0,0l0,0c-7.8,16.8-7.8,36.2,0,53l0,0l0,0c-16.8,7.8-36.2,7.8-53,0
					l0,0l0,0C168.9,197.2,168.9,177.8,161,161L161,161z"/>
			</g>
		</g>
		<g>
			<g>
				<path class="st3" d="M161,11L161,11c16.8-7.8,36.2-7.8,53,0l0,0l0,0c-7.8,16.8-7.8,36.2,0,53l0,0l0,0c-16.8,7.8-36.2,7.8-53,0
					l0,0l0,0C168.9,47.2,168.9,27.8,161,11L161,11z"/>
			</g>
		</g>
		<g>
			<g>
				<path class="st3" d="M11,161L11,161c16.8-7.8,36.2-7.8,53,0l0,0l0,0c-7.8,16.8-7.8,36.2,0,53l0,0l0,0c-16.8,7.8-36.2,7.8-53,0
					l0,0l0,0C18.8,197.2,18.8,177.8,11,161L11,161z"/>
			</g>
		</g>
	</g>
	<g id="_x35_-3_00000170265636559358375330000017735230075096748956_" class="st5">
		<g>
			<g>
				<path class="st3" d="M214,11L214,11c7.8,16.8,7.8,36.2,0,53l0,0l0,0c-16.8-7.8-36.2-7.8-53,0l0,0l0,0c-7.8-16.8-7.8-36.2,0-53
					l0,0l0,0C177.8,18.8,197.2,18.8,214,11L214,11z"/>
			</g>
		</g>
		<g>
			<g>
				<path class="st3" d="M139,86L139,86c7.8,16.8,7.8,36.2,0,53l0,0l0,0c-16.8-7.8-36.2-7.8-53,0l0,0l0,0c-7.8-16.8-7.8-36.2,0-53
					l0,0l0,0C102.8,93.8,122.2,93.8,139,86L139,86z"/>
			</g>
		</g>
		<g>
			<g>
				<path class="st3" d="M64,161L64,161c7.8,16.8,7.8,36.2,0,53l0,0l0,0c-16.8-7.8-36.2-7.8-53,0l0,0l0,0c-7.8-16.8-7.8-36.2,0-53
					l0,0l0,0C27.8,168.9,47.2,168.9,64,161L64,161z"/>
			</g>
		</g>
		<g>
			<g>
				<path class="st3" d="M214,161L214,161c7.8,16.8,7.8,36.2,0,53l0,0l0,0c-16.8-7.8-36.2-7.8-53,0l0,0l0,0c-7.8-16.8-7.8-36.2,0-53
					l0,0l0,0C177.8,168.9,197.2,168.9,214,161L214,161z"/>
			</g>
		</g>
		<g>
			<g>
				<path class="st3" d="M64,11L64,11c7.8,16.8,7.8,36.2,0,53l0,0l0,0c-16.8-7.8-36.2-7.8-53,0l0,0l0,0c-7.8-16.8-7.8-36.2,0-53l0,0
					l0,0C27.8,18.8,47.2,18.8,64,11L64,11z"/>
			</g>
		</g>
	</g>
</g>
<g id="_x34_-3_00000008112426070720216340000016022601239417326244_" class="st4">
	<g id="_x34_-2_00000134214767349996479610000017560138881704977552_" class="st5">
		<g>
			<path class="st2" d="M139,11L139,11c7.8,16.8,7.8,36.2,0,53l0,0l0,0c-16.8-7.8-36.2-7.8-53,0l0,0l0,0c-7.8-16.8-7.8-36.2,0-53
				l0,0l0,0C102.8,18.8,122.2,18.8,139,11L139,11z"/>
		</g>
		<g>
			<path class="st2" d="M139,161L139,161c7.8,16.8,7.8,36.2,0,53l0,0l0,0c-16.8-7.8-36.2-7.8-53,0l0,0l0,0c-7.8-16.8-7.8-36.2,0-53
				l0,0l0,0C102.8,168.9,122.2,168.9,139,161L139,161z"/>
		</g>
		<g>
			<path class="st2" d="M64,86L64,86c7.8,16.8,7.8,36.2,0,53l0,0l0,0c-16.8-7.8-36.2-7.8-53,0l0,0l0,0c-7.8-16.8-7.8-36.2,0-53l0,0
				l0,0C27.8,93.8,47.2,93.8,64,86L64,86z"/>
		</g>
		<g>
			<path class="st2" d="M214,86L214,86c7.8,16.8,7.8,36.2,0,53l0,0l0,0c-16.8-7.8-36.2-7.8-53,0l0,0l0,0c-7.8-16.8-7.8-36.2,0-53
				l0,0l0,0C177.8,93.8,197.2,93.8,214,86L214,86z"/>
		</g>
	</g>
	<g id="_x34_-3_00000061434121280708643760000005954401534751558051_" class="st5">
		<g>
			<path class="st2" d="M214,139L214,139c-16.8,7.8-36.2,7.8-53,0l0,0l0,0c7.8-16.8,7.8-36.2,0-53l0,0l0,0c16.8-7.8,36.2-7.8,53,0
				l0,0l0,0C206.2,102.8,206.2,122.2,214,139L214,139z"/>
		</g>
		<g>
			<path class="st2" d="M64,139L64,139c-16.8,7.8-36.2,7.8-53,0l0,0l0,0c7.8-16.8,7.8-36.2,0-53l0,0l0,0c16.8-7.8,36.2-7.8,53,0l0,0
				l0,0C56.1,102.8,56.1,122.2,64,139L64,139z"/>
		</g>
		<g>
			<path class="st2" d="M139,64L139,64c-16.8,7.8-36.2,7.8-53,0l0,0l0,0c7.8-16.8,7.8-36.2,0-53l0,0l0,0c16.8-7.8,36.2-7.8,53,0l0,0
				l0,0C131.2,27.8,131.2,47.2,139,64L139,64z"/>
		</g>
		<g>
			<path class="st2" d="M139,214L139,214c-16.8,7.8-36.2,7.8-53,0l0,0l0,0c7.8-16.8,7.8-36.2,0-53l0,0l0,0c16.8-7.8,36.2-7.8,53,0
				l0,0l0,0C131.2,177.8,131.2,197.2,139,214L139,214z"/>
		</g>
	</g>
</g>
<g id="ЛИНИИ2" class="st6">
	<g class="st1">
		<g>
			<g>
				<line class="st7" x1="225" y1="262.5" x2="0" y2="37.5"/>
			</g>
		</g>
		<g>
			<g>
				<line class="st7" x1="225" y1="187.5" x2="0" y2="-37.5"/>
			</g>
		</g>
		<g>
			<g>
				<line class="st7" x1="225" y1="112.5" x2="0" y2="-112.5"/>
			</g>
		</g>
		<g>
			<g>
				<line class="st7" x1="225" y1="337.5" x2="0" y2="112.5"/>
			</g>
		</g>
		<g>
			<g>
				<line class="st7" x1="225" y1="37.5" x2="0" y2="-187.5"/>
			</g>
		</g>
		<g>
			<g>
				<line class="st7" x1="225" y1="412.5" x2="0" y2="187.5"/>
			</g>
		</g>
	</g>
</g>
<g id="ЛИНИИ1" class="st6">
	<g class="st1">
		<g>
			<g>
				<line class="st7" x1="-37.5" y1="225" x2="187.5" y2="0"/>
			</g>
		</g>
		<g>
			<g>
				<line class="st7" x1="37.5" y1="225" x2="262.5" y2="0"/>
			</g>
		</g>
		<g>
			<g>
				<line class="st7" x1="112.5" y1="225" x2="337.5" y2="0"/>
			</g>
		</g>
		<g>
			<g>
				<line class="st7" x1="-112.5" y1="225" x2="112.5" y2="0"/>
			</g>
		</g>
		<g>
			<g>
				<line class="st7" x1="187.5" y1="225" x2="412.5" y2="0"/>
			</g>
		</g>
		<g>
			<g>
				<line class="st7" x1="-187.5" y1="225" x2="37.5" y2="0"/>
			</g>
		</g>
	</g>
</g>
<g id="Фон">
	<path class="st8" d="M74,0c0-0.6,0.4-1,1-1s1,0.4,1,1s-0.4,1-1,1S74,0.5,74,0"/>
	<path class="st8" d="M-1,75c0-0.6,0.4-1,1-1s1,0.4,1,1s-0.4,1-1,1S-1,75.5-1,75"/>
	<path class="st8" d="M36.5,37.5c0-0.5,0.5-1,1-1s1,0.5,1,1s-0.5,1-1,1S36.5,38,36.5,37.5"/>
	<path class="st8" d="M74,75c0-0.6,0.4-1,1-1s1,0.4,1,1s-0.4,1-1,1S74,75.5,74,75"/>
	<path class="st8" d="M-1,150c0-0.6,0.4-1,1-1s1,0.4,1,1s-0.4,1-1,1S-1,150.5-1,150"/>
	<path class="st8" d="M36.5,112.5c0-0.6,0.5-1,1-1s1,0.4,1,1s-0.5,1-1,1S36.5,113,36.5,112.5"/>
	<path class="st8" d="M74,150c0-0.6,0.4-1,1-1s1,0.4,1,1s-0.4,1-1,1S74,150.5,74,150"/>
	<path class="st8" d="M36.5,187.5c0-0.6,0.5-1,1-1s1,0.4,1,1s-0.5,1-1,1S36.5,188,36.5,187.5"/>
	<path class="st8" d="M74,225c0-0.6,0.4-1,1-1s1,0.4,1,1s-0.4,1-1,1S74,225.5,74,225"/>
	<path class="st8" d="M149,0c0-0.6,0.4-1,1-1s1,0.4,1,1s-0.4,1-1,1S149,0.5,149,0"/>
	<path class="st8" d="M111.5,37.5c0-0.5,0.4-1,1-1s1,0.5,1,1s-0.4,1-1,1S111.5,38,111.5,37.5"/>
	<path class="st8" d="M149,75c0-0.6,0.4-1,1-1s1,0.4,1,1s-0.4,1-1,1S149,75.5,149,75"/>
	<path class="st8" d="M186.5,37.5c0-0.5,0.4-1,1-1s1,0.5,1,1s-0.4,1-1,1S186.5,38,186.5,37.5"/>
	<path class="st8" d="M224,75c0-0.6,0.4-1,1-1s1,0.4,1,1s-0.4,1-1,1S224,75.5,224,75"/>
	<path class="st8" d="M111.5,112.5c0-0.6,0.4-1,1-1s1,0.4,1,1s-0.4,1-1,1S111.5,113,111.5,112.5"/>
	<path class="st8" d="M149,150c0-0.6,0.4-1,1-1s1,0.4,1,1s-0.4,1-1,1S149,150.5,149,150"/>
	<path class="st8" d="M186.5,112.5c0-0.6,0.4-1,1-1s1,0.4,1,1s-0.4,1-1,1S186.5,113,186.5,112.5"/>
	<path class="st8" d="M224,150c0-0.6,0.4-1,1-1s1,0.4,1,1s-0.4,1-1,1S224,150.5,224,150"/>
	<path class="st8" d="M111.5,187.5c0-0.6,0.4-1,1-1s1,0.4,1,1s-0.4,1-1,1S111.5,188,111.5,187.5"/>
	<path class="st8" d="M149,225c0-0.6,0.4-1,1-1s1,0.4,1,1s-0.4,1-1,1S149,225.5,149,225"/>
	<path class="st8" d="M186.5,187.5c0-0.6,0.4-1,1-1s1,0.4,1,1s-0.4,1-1,1S186.5,188,186.5,187.5"/>
	<line class="st9" x1="0" y1="0" x2="0" y2="225"/>
	<line class="st9" x1="75" y1="0" x2="75" y2="225"/>
	<line class="st9" x1="150" y1="0" x2="150" y2="225"/>
	<line class="st9" x1="225" y1="0" x2="225" y2="225"/>
	<line class="st9" x1="225" y1="225" x2="0" y2="225"/>
	<line class="st9" x1="225" y1="150" x2="0" y2="150"/>
	<line class="st9" x1="225" y1="75" x2="0" y2="75"/>
	<line class="st9" x1="225" y1="0" x2="0" y2="0"/>
	<line class="st10" x1="5.7" y1="0" x2="-5.7" y2="0"/>
	<line class="st10" x1="0" y1="5.7" x2="0" y2="-5.7"/>
	<line class="st10" x1="5.7" y1="225" x2="-5.7" y2="225"/>
	<line class="st10" x1="0" y1="230.7" x2="0" y2="219.3"/>
	<line class="st10" x1="230.7" y1="0" x2="219.3" y2="0"/>
	<line class="st10" x1="225" y1="5.7" x2="225" y2="-5.7"/>
	<line class="st10" x1="230.7" y1="225" x2="219.3" y2="225"/>
	<line class="st10" x1="225" y1="230.7" x2="225" y2="219.3"/>
</g>
<g class="st4">
	<g id="_x34_-4" class="st11">
		<g>
			<g>
				<g>
					<polygon class="st12" points="235,197.5 -10,-47.5 -10,27.5 235,272.5 					"/>
				</g>
			</g>
		</g>
	</g>
	<g id="_x35_-4" class="st11">
		<g>
			<g>
				<g>
					<polygon class="st12" points="272.5,-10 27.5,235 -47.5,235 197.5,-10 					"/>
				</g>
			</g>
		</g>
	</g>
	<g id="_x35_-4_00000090270065073470167220000007212443199665362304_" class="st11">
		<g>
			<g>
				<g>
					<polygon class="st12" points="372.5,115 127.5,360 52.5,360 297.5,115 					"/>
				</g>
			</g>
		</g>
	</g>
	<g id="_x35_-4_00000066487877098594852040000012838858516460741538_" class="st11">
		<g>
			<g>
				<g>
					<polygon class="st12" points="172.5,-135 -72.5,110 -147.5,110 97.5,-135 					"/>
				</g>
			</g>
		</g>
	</g>
	<g id="_x35_-4_00000176007752096011998920000001978204038269583279_" class="st11">
		<g>
			<g>
				<g>
					<polygon class="st12" points="110,372.5 -135,127.5 -135,52.5 110,297.5 					"/>
				</g>
			</g>
		</g>
	</g>
	<g id="_x35_-4_00000153665671977882458450000017478802184954935693_" class="st11">
		<g>
			<g>
				<g>
					<polygon class="st12" points="360,172.5 115,-72.5 115,-147.5 360,97.5 					"/>
				</g>
			</g>
		</g>
	</g>
</g>
</svg>
