<svg id="Слой_1" data-name="Слой 1" xmlns="http://www.w3.org/2000/svg" viewBox="0 0 408.51 121.49"><defs><style>.cls-1{fill:#fff;}.cls-2{fill:#c64053;}.cls-3{fill:#a6afb1;}.cls-4{fill:#5b7ead;}</style></defs><rect class="cls-1" width="416.01" height="121.49"/><polygon class="cls-2" points="85.58 60.75 99.42 22.73 105.05 7.5 87.91 7.5 71.37 52.76 61.68 52.76 61.68 7.5 60.67 7.5 49.03 7.5 47.64 7.5 22.52 76.55 22.52 7.5 7.5 7.5 7.5 113.92 20.68 113.92 45.66 45.38 45.66 113.92 45.66 113.92 45.66 113.99 61.68 113.99 61.68 68.73 71.37 68.73 87.91 113.99 105.05 113.99 99.42 98.76 85.58 60.75"/><polygon class="cls-2" points="129.42 98.76 115.58 60.75 129.42 22.73 151.92 22.73 151.92 7.5 117.91 7.5 98.46 60.75 117.91 113.99 190.16 113.99 190.16 98.76 129.42 98.76"/><rect class="cls-3" x="196.75" y="7.5" width="15.01" height="106.49"/><rect class="cls-3" x="161.92" y="7.5" width="84.67" height="15.01"/><rect class="cls-3" x="161.92" y="77.16" width="84.67" height="15.01"/><rect class="cls-3" x="231.58" y="7.5" width="15.01" height="84.67"/><rect class="cls-3" x="161.92" y="7.5" width="15.01" height="84.67"/><path class="cls-4" d="M378.68,7.5,356.77,67.32V7.5h-14L317.6,76.55V7.5H287.76L254.34,98.76h-36V114h47.5l7.79-21.31h28.94v21.24h13.19l25-68.54v68.54h0V114h16l33.42-91.26h3.31v91.19h15V7.5Zm-76.1,69.21H279.47l2.92-8,3-8,13.85-38h3.3Z"/><polygon class="cls-2" points="323.88 7.5 323.88 42.03 336.44 7.5 323.88 7.5"/><circle class="cls-1" cx="204.26" cy="15.01" r="5"/><circle class="cls-1" cx="239.09" cy="15.01" r="5"/><circle class="cls-1" cx="169.43" cy="15.01" r="5"/><circle class="cls-1" cx="204.26" cy="84.67" r="5"/><circle class="cls-1" cx="239.09" cy="84.67" r="5"/><circle class="cls-1" cx="169.43" cy="84.67" r="5"/><circle class="cls-1" cx="169.43" cy="49.84" r="5"/><circle class="cls-1" cx="239.09" cy="49.84" r="5"/><circle class="cls-1" cx="204.26" cy="49.84" r="5"/></svg>