<svg xmlns="http://www.w3.org/2000/svg" viewBox="0 0 500 500">
  <defs>
    <style>
      .cls-1, .cls-2 {
        fill: none;
        stroke-linecap: round;
        stroke-linejoin: round;
        stroke-width: 85px;
      }

      .cls-1 {
        stroke: #a6afb1;
      }

      .cls-2 {
        stroke: #245391;
        opacity: 0.75;
      }

      .cls-3 {
        fill: #1a1919;
      }

      .cls-4 {
        fill: #c64053;
      }
    </style>
  </defs>
  <g id="_0М" data-name="0М">
    <polyline class="cls-1" points="81.8 249.33 81.8 78.33 252.8 249.33 423.8 78.33 423.8 420.33"/>
  </g>
  <g id="_0П" data-name="0П">
    <polyline class="cls-2" points="81.8 249.33 252.8 78.33 423.8 249.33 252.8 420.33"/>
  </g>
  <g id="_09" data-name="09">
    <path class="cls-3" d="M452.47,420.33a28.67,28.67,0,1,1-28.67-28.66A28.67,28.67,0,0,1,452.47,420.33Z"/>
  </g>
  <g id="_08" data-name="08">
    <path class="cls-3" d="M281.47,420.33a28.67,28.67,0,1,1-28.67-28.66A28.67,28.67,0,0,1,281.47,420.33Z"/>
  </g>
  <g id="_07" data-name="07">
    <path class="cls-4" d="M110.47,420.33A28.67,28.67,0,1,1,81.8,391.67,28.67,28.67,0,0,1,110.47,420.33Z"/>
  </g>
  <g id="_06" data-name="06">
    <path class="cls-3" d="M452.47,249.33a28.67,28.67,0,1,1-28.67-28.66A28.67,28.67,0,0,1,452.47,249.33Z"/>
  </g>
  <g id="_05" data-name="05">
    <path class="cls-3" d="M281.47,249.33a28.67,28.67,0,1,1-28.67-28.66A28.67,28.67,0,0,1,281.47,249.33Z"/>
  </g>
  <g id="_04" data-name="04">
    <path class="cls-3" d="M110.47,249.33A28.67,28.67,0,1,1,81.8,220.67,28.67,28.67,0,0,1,110.47,249.33Z"/>
  </g>
  <g id="_03" data-name="03">
    <path class="cls-3" d="M452.47,78.33A28.67,28.67,0,1,1,423.8,49.67,28.67,28.67,0,0,1,452.47,78.33Z"/>
  </g>
  <g id="_02" data-name="02">
    <path class="cls-3" d="M281.47,78.33A28.67,28.67,0,1,1,252.8,49.67,28.67,28.67,0,0,1,281.47,78.33Z"/>
  </g>
  <g id="_01" data-name="01">
    <path class="cls-3" d="M110.47,78.33A28.67,28.67,0,1,1,81.8,49.67,28.67,28.67,0,0,1,110.47,78.33Z"/>
  </g>
</svg>
